<?xml version="1.0" encoding="UTF-8" standalone="no"?>
<!DOCTYPE svg PUBLIC "-//W3C//DTD SVG 1.1//EN"
 "http://www.w3.org/Graphics/SVG/1.1/DTD/svg11.dtd">
<!-- Generated by graphviz version 12.1.2 (20240928.0832)
 -->
<!-- Title: FSM Pages: 1 -->
<svg width="464pt" height="544pt"
 viewBox="0.00 0.00 464.19 544.00" xmlns="http://www.w3.org/2000/svg" xmlns:xlink="http://www.w3.org/1999/xlink">
<g id="graph0" class="graph" transform="scale(1 1) rotate(0) translate(4 540)">
<title>FSM</title>
<polygon fill="white" stroke="none" points="-4,4 -4,-540 460.19,-540 460.19,4 -4,4"/>
<!-- IDLE -->
<g id="node1" class="node">
<title>IDLE</title>
<ellipse fill="none" stroke="black" cx="328.3" cy="-518" rx="31.9" ry="18"/>
<text text-anchor="middle" x="328.3" y="-512.95" font-family="Times New Roman,serif" font-size="14.00">IDLE</text>
</g>
<!-- IDLE&#45;&gt;IDLE -->
<g id="edge2" class="edge">
<title>IDLE&#45;&gt;IDLE</title>
<path fill="none" stroke="black" d="M357.27,-526.26C368.68,-526.67 378.21,-523.92 378.21,-518 378.21,-514.21 374.3,-511.72 368.49,-510.52"/>
<polygon fill="black" stroke="black" points="369,-507.05 358.78,-509.85 368.51,-514.03 369,-507.05"/>
<text text-anchor="middle" x="416.08" y="-512.95" font-family="Times New Roman,serif" font-size="14.00">!s_axis_tvalid</text>
</g>
<!-- LOAD_PARAM -->
<g id="node2" class="node">
<title>LOAD_PARAM</title>
<ellipse fill="none" stroke="black" cx="193.3" cy="-429.5" rx="73.87" ry="18"/>
<text text-anchor="middle" x="193.3" y="-424.45" font-family="Times New Roman,serif" font-size="14.00">LOAD_PARAM</text>
</g>
<!-- IDLE&#45;&gt;LOAD_PARAM -->
<g id="edge1" class="edge">
<title>IDLE&#45;&gt;LOAD_PARAM</title>
<path fill="none" stroke="black" d="M307.8,-503.86C286.7,-490.34 253.44,-469.03 228.2,-452.86"/>
<polygon fill="black" stroke="black" points="230.19,-449.98 219.89,-447.53 226.42,-455.87 230.19,-449.98"/>
<text text-anchor="middle" x="308.52" y="-468.7" font-family="Times New Roman,serif" font-size="14.00">s_axis_tvalid</text>
</g>
<!-- LOAD_PARAM&#45;&gt;LOAD_PARAM -->
<g id="edge4" class="edge">
<title>LOAD_PARAM&#45;&gt;LOAD_PARAM</title>
<path fill="none" stroke="black" d="M260.19,-437.55C274.67,-436.76 285.17,-434.08 285.17,-429.5 285.17,-426.24 279.87,-423.95 271.6,-422.61"/>
<polygon fill="black" stroke="black" points="272,-419.13 261.7,-421.6 271.3,-426.09 272,-419.13"/>
<text text-anchor="middle" x="338.42" y="-424.45" font-family="Times New Roman,serif" font-size="14.00">byte_counter != &#39;d8</text>
</g>
<!-- LOAD_DATA -->
<g id="node3" class="node">
<title>LOAD_DATA</title>
<ellipse fill="none" stroke="black" cx="126.3" cy="-341" rx="65.17" ry="18"/>
<text text-anchor="middle" x="126.3" y="-335.95" font-family="Times New Roman,serif" font-size="14.00">LOAD_DATA</text>
</g>
<!-- LOAD_PARAM&#45;&gt;LOAD_DATA -->
<g id="edge3" class="edge">
<title>LOAD_PARAM&#45;&gt;LOAD_DATA</title>
<path fill="none" stroke="black" d="M180.07,-411.41C170.43,-398.97 157.21,-381.91 146.3,-367.81"/>
<polygon fill="black" stroke="black" points="149.33,-366.01 140.44,-360.25 143.8,-370.3 149.33,-366.01"/>
<text text-anchor="middle" x="220.93" y="-380.2" font-family="Times New Roman,serif" font-size="14.00">byte_counter == &#39;d8</text>
</g>
<!-- LOAD_DATA&#45;&gt;LOAD_DATA -->
<g id="edge7" class="edge">
<title>LOAD_DATA&#45;&gt;LOAD_DATA</title>
<path fill="none" stroke="black" d="M184.98,-349.15C199.05,-348.51 209.47,-345.8 209.47,-341 209.47,-337.63 204.32,-335.28 196.37,-333.97"/>
<polygon fill="black" stroke="black" points="196.78,-330.49 186.49,-333 196.1,-337.46 196.78,-330.49"/>
<text text-anchor="middle" x="311.47" y="-335.95" font-family="Times New Roman,serif" font-size="14.00">byte_counter != &#39;d8 &amp;&amp; !s_axis_tlast</text>
</g>
<!-- LOAD_DATA_COMPUTE -->
<g id="node4" class="node">
<title>LOAD_DATA_COMPUTE</title>
<ellipse fill="none" stroke="black" cx="114.3" cy="-252.5" rx="114.3" ry="18"/>
<text text-anchor="middle" x="114.3" y="-247.45" font-family="Times New Roman,serif" font-size="14.00">LOAD_DATA_COMPUTE</text>
</g>
<!-- LOAD_DATA&#45;&gt;LOAD_DATA_COMPUTE -->
<g id="edge6" class="edge">
<title>LOAD_DATA&#45;&gt;LOAD_DATA_COMPUTE</title>
<path fill="none" stroke="black" d="M123.93,-322.91C122.32,-311.26 120.14,-295.55 118.26,-282.02"/>
<polygon fill="black" stroke="black" points="121.76,-281.77 116.92,-272.35 114.83,-282.74 121.76,-281.77"/>
<text text-anchor="middle" x="225.25" y="-291.7" font-family="Times New Roman,serif" font-size="14.00">byte_counter == &#39;d8 &amp;&amp; !s_axis_tlast</text>
</g>
<!-- LAST -->
<g id="node5" class="node">
<title>LAST</title>
<ellipse fill="none" stroke="black" cx="350.3" cy="-164" rx="33.95" ry="18"/>
<text text-anchor="middle" x="350.3" y="-158.95" font-family="Times New Roman,serif" font-size="14.00">LAST</text>
</g>
<!-- LOAD_DATA&#45;&gt;LAST -->
<g id="edge5" class="edge">
<title>LOAD_DATA&#45;&gt;LAST</title>
<path fill="none" stroke="black" d="M190.52,-337.36C243.87,-333.73 314.05,-325.17 333.3,-305 361.48,-275.47 360.17,-225.04 355.83,-193.44"/>
<polygon fill="black" stroke="black" points="359.33,-193.16 354.31,-183.83 352.41,-194.26 359.33,-193.16"/>
<text text-anchor="middle" x="389.48" y="-247.45" font-family="Times New Roman,serif" font-size="14.00">s_axis_tlast</text>
</g>
<!-- LOAD_DATA_COMPUTE&#45;&gt;LOAD_DATA_COMPUTE -->
<g id="edge9" class="edge">
<title>LOAD_DATA_COMPUTE&#45;&gt;LOAD_DATA_COMPUTE</title>
<path fill="none" stroke="black" d="M218.84,-260.12C235.34,-258.99 246.61,-256.45 246.61,-252.5 246.61,-249.53 240.27,-247.36 230.14,-245.99"/>
<polygon fill="black" stroke="black" points="230.65,-242.52 220.35,-245.03 229.96,-249.49 230.65,-242.52"/>
<text text-anchor="middle" x="280.36" y="-247.45" font-family="Times New Roman,serif" font-size="14.00">!s_axis_tlast</text>
</g>
<!-- LOAD_DATA_COMPUTE&#45;&gt;LAST -->
<g id="edge8" class="edge">
<title>LOAD_DATA_COMPUTE&#45;&gt;LAST</title>
<path fill="none" stroke="black" d="M158.14,-235.43C202.44,-219.2 270.18,-194.37 312.28,-178.94"/>
<polygon fill="black" stroke="black" points="313.31,-182.29 321.49,-175.56 310.9,-175.72 313.31,-182.29"/>
<text text-anchor="middle" x="284.94" y="-203.2" font-family="Times New Roman,serif" font-size="14.00">s_axis_tlast</text>
</g>
<!-- DUMMY -->
<g id="node6" class="node">
<title>DUMMY</title>
<ellipse fill="none" stroke="black" cx="361.3" cy="-91" rx="48.28" ry="18"/>
<text text-anchor="middle" x="361.3" y="-85.95" font-family="Times New Roman,serif" font-size="14.00">DUMMY</text>
</g>
<!-- LAST&#45;&gt;DUMMY -->
<g id="edge10" class="edge">
<title>LAST&#45;&gt;DUMMY</title>
<path fill="none" stroke="black" d="M352.97,-145.81C354.16,-138.14 355.59,-128.89 356.93,-120.24"/>
<polygon fill="black" stroke="black" points="360.36,-120.94 358.43,-110.52 353.44,-119.87 360.36,-120.94"/>
</g>
<!-- DUMMY1 -->
<g id="node7" class="node">
<title>DUMMY1</title>
<ellipse fill="none" stroke="black" cx="403.3" cy="-18" rx="52.89" ry="18"/>
<text text-anchor="middle" x="403.3" y="-12.95" font-family="Times New Roman,serif" font-size="14.00">DUMMY1</text>
</g>
<!-- DUMMY&#45;&gt;DUMMY1 -->
<g id="edge11" class="edge">
<title>DUMMY&#45;&gt;DUMMY1</title>
<path fill="none" stroke="black" d="M371.26,-73.17C376.17,-64.86 382.22,-54.64 387.73,-45.33"/>
<polygon fill="black" stroke="black" points="390.57,-47.4 392.65,-37.01 384.55,-43.83 390.57,-47.4"/>
</g>
<!-- DUMMY1&#45;&gt;IDLE -->
<g id="edge12" class="edge">
<title>DUMMY1&#45;&gt;IDLE</title>
<path fill="none" stroke="black" d="M418.1,-35.48C428.77,-49.09 441.3,-69.45 441.3,-90 441.3,-430.5 441.3,-430.5 441.3,-430.5 441.3,-468.79 399.89,-492.42 367.2,-505.11"/>
<polygon fill="black" stroke="black" points="366.15,-501.77 357.95,-508.48 368.54,-508.35 366.15,-501.77"/>
</g>
</g>
</svg>
